<svg width="59" height="59" viewBox="0 0 59 59" fill="none" xmlns="http://www.w3.org/2000/svg">
<path fill-rule="evenodd" clip-rule="evenodd" d="M9.96349 24.3518C10.2919 24.0983 10.6457 23.8862 11.0182 23.719C10.5182 22.8118 10.17 21.8083 9.98706 20.7568C9.73567 19.3118 9.80184 17.809 10.1768 16.3779C10.5517 14.9468 11.2271 13.6192 12.1534 12.515C13.08 11.4104 14.2351 10.5569 15.5272 10.0482C16.5369 9.65073 17.6016 9.47541 18.6609 9.53441C19.2194 7.68117 20.8371 6.14575 23.3541 6.14575C24.5066 6.14575 25.4708 6.38654 26.2434 6.87176C27.0245 7.36232 27.5114 8.04103 27.8061 8.7427C28.2972 9.91192 28.2817 11.2632 28.2728 12.0393C28.2718 12.1317 28.2708 12.2168 28.2708 12.2916V52.8517C28.2708 53.5305 27.7205 54.0832 27.0417 54.0833C24.4445 54.0833 22.5511 52.8986 21.5886 51.1704L21.5586 51.1158C20.735 51.304 19.872 51.3005 19.027 51.1155C18.0231 50.8958 17.0725 50.4265 16.2517 49.7635C15.431 49.1005 14.7559 48.2569 14.2817 47.3065C13.8444 46.4302 13.5855 45.4783 13.5306 44.5191C12.6532 44.3787 11.8132 44.0553 11.0659 43.5681C10.1916 42.998 9.47103 42.2212 8.96812 41.3065C8.46521 40.3917 8.19539 39.3672 8.18265 38.3236C8.16992 37.2799 8.41467 36.2494 8.89539 35.3232C9.14266 34.8468 9.44843 34.4056 9.80424 34.0092C9.24046 33.5037 8.77209 32.8882 8.42148 32.2005C7.98062 31.3358 7.73477 30.3745 7.70226 29.3995C7.66974 28.4246 7.85126 27.4548 8.23999 26.5758C8.62893 25.6962 9.21648 24.9282 9.96349 24.3518ZM19.4133 30.5402C18.4395 30.6315 17.4708 30.4601 16.6004 30.0314C15.9914 29.7315 15.7408 28.9947 16.0408 28.3857C16.3407 27.7767 17.0775 27.5261 17.6865 27.8261C18.1367 28.0478 18.6485 28.1427 19.1838 28.0926C19.721 28.0422 20.2724 27.8461 20.7843 27.5025C21.2967 27.1587 21.7466 26.6821 22.0854 26.1101C22.4242 25.5381 22.6353 24.8987 22.7016 24.2528C22.768 23.6069 22.6867 22.9856 22.4802 22.4427C22.2388 21.8082 22.5575 21.0981 23.1919 20.8568C23.8264 20.6154 24.5365 20.9341 24.7778 21.5685C25.1287 22.4908 25.2503 23.4995 25.1471 24.504C25.0439 25.5085 24.7182 26.4891 24.2005 27.363C23.6828 28.2369 22.983 28.9877 22.1542 29.5438C21.3249 30.1003 20.3852 30.449 19.4133 30.5402ZM24.1997 44.0794C24.8785 44.0787 25.4283 43.5278 25.4275 42.8489C25.4268 42.1701 24.8759 41.6204 24.197 41.6211C23.2457 41.6221 22.313 41.8398 21.4856 42.2702C20.6569 42.7012 19.9605 43.3322 19.4716 44.1157C18.9822 44.8999 18.7245 45.7988 18.7173 46.7263C18.7121 47.4051 19.2581 47.9597 19.937 47.9649C20.6158 47.9701 21.1703 47.4241 21.1756 46.7453C21.1793 46.2644 21.3117 45.8105 21.5571 45.4172C21.8029 45.0233 22.1634 44.6886 22.6199 44.4511C23.0777 44.213 23.619 44.0801 24.1997 44.0794ZM13.7834 34.8346C13.791 35.5134 14.3475 36.0575 15.0263 36.0498C15.2357 36.0475 15.419 36.0983 15.5681 36.184C15.7164 36.2693 15.8403 36.3946 15.9283 36.5563C16.0171 36.7193 16.0712 36.9235 16.0688 37.1574C16.0619 37.8363 16.6066 38.3921 17.2854 38.399C17.9643 38.4059 18.5201 37.8612 18.527 37.1824C18.5334 36.5544 18.3882 35.9333 18.0873 35.3806C17.7857 34.8267 17.3415 34.368 16.7937 34.053C16.2467 33.7383 15.6274 33.5846 14.9986 33.5917C14.3198 33.5993 13.7757 34.1558 13.7834 34.8346ZM24.346 37.9608C24.9662 37.6847 25.2452 36.9582 24.9691 36.338C24.693 35.7178 23.9665 35.4389 23.3463 35.715C22.8735 35.9254 22.4603 36.2542 22.1562 36.6814C21.8515 37.1093 21.6753 37.6094 21.6395 38.1307C21.6038 38.6504 21.7092 39.1649 21.928 39.6294C22.2173 40.2435 22.9497 40.5069 23.5638 40.2175C24.1779 39.9282 24.4413 39.1959 24.152 38.5818C24.1011 38.4737 24.0867 38.3762 24.092 38.299C24.0972 38.2233 24.1213 38.1598 24.1587 38.1073C24.1966 38.0541 24.2565 38.0007 24.346 37.9608ZM16.4173 16.5144C16.9457 16.3784 17.5003 16.3863 18.0262 16.5486C18.6749 16.7487 19.0385 17.4368 18.8384 18.0855C18.6383 18.7341 17.9502 19.0978 17.3015 18.8977C17.2232 18.8735 17.132 18.8689 17.03 18.8951C16.9262 18.9218 16.8082 18.9819 16.6941 19.088C16.5797 19.1945 16.4793 19.3386 16.4112 19.511C16.343 19.6834 16.3138 19.8677 16.3236 20.0434C16.3335 20.2192 16.3812 20.3698 16.4479 20.4857C16.7863 21.0742 16.5837 21.8256 15.9952 22.1641C15.4067 22.5025 14.6553 22.2998 14.3169 21.7113C14.0479 21.2436 13.8992 20.7168 13.8691 20.1811C13.8391 19.6454 13.9278 19.1063 14.1249 18.6075C14.322 18.1087 14.626 17.6544 15.0194 17.2883C15.4132 16.9219 15.8906 16.6499 16.4173 16.5144ZM22.2333 13.8023C21.5582 13.7316 21.0682 13.1269 21.1389 12.4518C21.2096 11.7766 21.8143 11.2866 22.4894 11.3573C23.0276 11.4137 23.544 11.6069 23.9836 11.9326C24.4239 12.2587 24.7602 12.698 24.964 13.204C25.1673 13.7085 25.2291 14.2541 25.1616 14.7876C25.0765 15.4611 24.4614 15.9381 23.788 15.8529C23.1145 15.7677 22.6375 15.1527 22.7227 14.4792C22.7407 14.3366 22.7213 14.2157 22.6838 14.1226C22.6469 14.0309 22.5903 13.9598 22.5203 13.9079C22.4497 13.8556 22.3543 13.815 22.2333 13.8023Z" fill="#12831D"/>
<path opacity="0.5" fill-rule="evenodd" clip-rule="evenodd" d="M40.3323 9.50255C39.7645 7.66136 38.1487 6.14575 35.6488 6.14575C34.4964 6.14575 33.5322 6.38654 32.7596 6.87176C31.9785 7.36232 31.4915 8.04103 31.1968 8.7427C30.7057 9.91192 30.7212 11.2632 30.7301 12.0393C30.7312 12.1321 30.7322 12.2166 30.7322 12.2916V52.8529C30.7322 52.9172 30.7371 52.9815 30.7466 53.0431C30.8313 53.5916 31.2785 54.0203 31.8357 54.0769C31.877 54.0811 31.9189 54.0833 31.9613 54.0833C34.5586 54.0833 36.4519 52.8986 37.4143 51.1704L37.4443 51.1158C38.268 51.304 39.131 51.3005 39.976 51.1155C40.9799 50.8958 41.9305 50.4265 42.7513 49.7635C43.572 49.1005 44.2471 48.2569 44.7213 47.3065C45.1586 46.4302 45.4175 45.4783 45.4724 44.5191C46.3498 44.3787 47.1898 44.0553 47.937 43.5681C48.8114 42.998 49.5319 42.2212 50.0348 41.3065C50.5377 40.3917 50.8076 39.3672 50.8203 38.3236C50.833 37.2799 50.5883 36.2494 50.1076 35.3232C49.8603 34.8468 49.5545 34.4056 49.1987 34.0092C49.7625 33.5037 50.2309 32.8882 50.5815 32.2005C51.0223 31.3358 51.2682 30.3745 51.3007 29.3995C51.3332 28.4246 51.1517 27.4548 50.763 26.5758C50.374 25.6962 49.7865 24.9282 49.0395 24.3518C48.711 24.0983 48.3572 23.8862 47.9847 23.719C48.4848 22.8118 48.833 21.8083 49.0159 20.7568C49.2673 19.3118 49.2011 17.809 48.8262 16.3779C48.4513 14.9468 47.7759 13.6192 46.8496 12.515C45.923 11.4104 44.7678 10.5569 43.4757 10.0482C42.4661 9.65073 41.4013 9.47541 40.342 9.53441L40.3323 9.50255ZM42.0683 31.0578C43.0459 31.0846 44.0012 30.8496 44.8414 30.3643C45.4292 30.0248 45.6305 29.273 45.291 28.6851C44.9514 28.0973 44.1996 27.896 43.6118 28.2355C43.1772 28.4866 42.6729 28.6151 42.1354 28.6004C41.5961 28.5857 41.0329 28.4264 40.4994 28.1175C39.9654 27.8083 39.485 27.3625 39.1091 26.8141C38.7333 26.2658 38.4804 25.6417 38.3715 25.0016C38.2576 24.3324 37.6228 23.8822 36.9535 23.996C36.2843 24.1099 35.8341 24.7447 35.948 25.4139C36.1173 26.4094 36.5072 27.3663 37.0815 28.2041C37.6558 29.0419 38.4037 29.7447 39.2675 30.2449C40.1317 30.7453 41.0924 31.0312 42.0683 31.0578ZM37.6109 33.8202C37.8607 33.189 37.5516 32.4748 36.9204 32.225C36.2892 31.9751 35.575 32.2843 35.3251 32.9155C35.0937 33.5002 35.0158 34.1335 35.1141 34.7569C35.2125 35.3811 35.482 35.9599 35.8915 36.4397C36.3 36.9183 36.8282 37.2759 37.4169 37.4945C38.0534 37.7308 38.7608 37.4064 38.9971 36.77C39.2333 36.1336 38.9089 35.4261 38.2725 35.1899C38.0532 35.1084 37.8818 34.9849 37.7613 34.8437C37.6418 34.7037 37.5691 34.5432 37.5425 34.3741C37.5157 34.2043 37.5338 34.0149 37.6109 33.8202ZM42.7748 17.9786C42.4637 17.5304 42.0386 17.174 41.5346 16.9531C40.9128 16.6807 40.1879 16.964 39.9155 17.5857C39.643 18.2075 39.9263 18.9324 40.5481 19.2049C40.6231 19.2377 40.6952 19.2938 40.7553 19.3804C40.8163 19.4684 40.8665 19.591 40.8834 19.7458C40.9005 19.9012 40.8823 20.0759 40.8212 20.251C40.7601 20.426 40.6619 20.5846 40.5395 20.7112C40.4173 20.8378 40.2826 20.9206 40.1564 20.9648C39.5157 21.189 39.1781 21.8903 39.4024 22.531C39.6267 23.1717 40.3279 23.5093 40.9686 23.285C41.4779 23.1068 41.9347 22.8052 42.3075 22.4193C42.6803 22.0335 42.9655 21.5674 43.1422 21.061C43.319 20.5546 43.3857 20.0121 43.3271 19.4779C43.2685 18.9432 43.0849 18.4254 42.7748 17.9786ZM36.0514 44.829C36.3012 44.1978 35.9921 43.4835 35.3609 43.2337C34.7297 42.9838 34.0155 43.293 33.7656 43.9242C33.5342 44.5089 33.4563 45.1422 33.5546 45.7656C33.653 46.3898 33.9225 46.9686 34.332 47.4484C34.7405 47.927 35.2687 48.2846 35.8575 48.5032C36.4939 48.7395 37.2013 48.4151 37.4376 47.7787C37.6738 47.1423 37.3494 46.4348 36.713 46.1986C36.4937 46.1171 36.3224 45.9936 36.2018 45.8524C36.0823 45.7124 36.0096 45.5519 35.983 45.3829C35.9562 45.213 35.9743 45.0236 36.0514 44.829ZM38.1053 41.832C38.0765 41.1537 38.603 40.5806 39.2813 40.5518C39.8615 40.5272 40.3968 40.372 40.8443 40.1152C41.2907 39.8591 41.637 39.5098 41.8664 39.1061C42.0954 38.703 42.2089 38.244 42.1928 37.7634C42.17 37.085 42.7015 36.5165 43.38 36.4937C44.0584 36.4709 44.6269 37.0024 44.6497 37.6809C44.6808 38.6079 44.4604 39.5167 44.0039 40.3204C43.5477 41.1234 42.878 41.7826 42.0678 42.2475C41.2588 42.7117 40.3359 42.9677 39.3854 43.0079C38.7072 43.0367 38.134 42.5102 38.1053 41.832ZM37.2074 13.8786C37.8825 13.8079 38.3725 13.2032 38.3018 12.5281C38.2311 11.8529 37.6264 11.3629 36.9513 11.4336C36.3259 11.4991 35.7285 11.7233 35.2213 12.099C34.7136 12.4751 34.3253 12.982 34.0896 13.567C33.8544 14.1507 33.7819 14.7844 33.8607 15.4075C33.9458 16.081 34.5609 16.5579 35.2343 16.4727C35.9078 16.3876 36.3848 15.7726 36.2996 15.0991C36.2702 14.867 36.3004 14.6579 36.3698 14.4857C36.4386 14.3149 36.5472 14.1762 36.6847 14.0743C36.8228 13.972 36.9991 13.9004 37.2074 13.8786Z" fill="#12831D"/>
</svg>
