<svg width="64" height="50" viewBox="0 0 64 50" fill="none" xmlns="http://www.w3.org/2000/svg">
<path d="M43.374 0.320376V0.30957H46.2169L47.2557 0.514877C47.9483 0.648164 48.577 0.822837 49.1419 1.03895C49.7069 1.25506 50.2536 1.50721 50.7821 1.79534C51.3106 2.08347 51.7899 2.37706 52.22 2.676C52.6465 2.97137 53.0292 3.28473 53.3681 3.61609C53.7034 3.95106 54.2264 4.0375 54.9372 3.87542C55.6479 3.71334 56.4133 3.4882 57.2334 3.20007C58.0535 2.91194 58.8645 2.58777 59.6663 2.22757C60.4682 1.86736 60.9567 1.63866 61.1316 1.54141C61.3029 1.44059 61.394 1.38656 61.405 1.37933L61.4159 1.36312L61.4705 1.3361L61.5252 1.30909L61.5799 1.28207L61.6345 1.25506L61.6455 1.23885L61.6619 1.22805L61.6783 1.21724L61.6892 1.20103L61.7439 1.18482L61.7986 1.17402L61.7877 1.25506L61.7712 1.3361L61.7439 1.41714L61.7165 1.49819L61.6892 1.55221L61.6619 1.60624L61.6345 1.68728C61.6163 1.74131 61.5981 1.81333 61.5799 1.9034C61.5617 1.99346 61.3885 2.35361 61.0605 2.98396C60.7324 3.6143 60.3224 4.25362 59.8304 4.90195C59.3383 5.55029 58.8973 6.04011 58.5073 6.37151C58.1137 6.70649 57.8531 6.94059 57.7255 7.07388C57.5979 7.21073 57.443 7.33678 57.2608 7.45208L56.9874 7.63037L56.9327 7.65738L56.878 7.6844L56.8672 7.7006L56.8507 7.71141L56.8343 7.72221L56.8234 7.73842L56.7687 7.76544L56.714 7.79245L56.7032 7.80866L56.6867 7.81947L56.6703 7.83027L56.6594 7.84648L56.6485 7.86269L56.632 7.87349L56.6156 7.8843L56.6047 7.90051H56.878L58.4089 7.57634C59.4294 7.36023 60.4044 7.09911 61.3338 6.79293L62.81 6.30668L62.974 6.25265L63.056 6.22564L63.1107 6.19862L63.1654 6.17161L63.22 6.1446L63.2747 6.11758L63.3841 6.10137L63.4934 6.09057V6.19862L63.4661 6.20943L63.4387 6.22564L63.4278 6.24185L63.4114 6.25265L63.395 6.26346L63.3841 6.27967L63.3732 6.29588L63.3567 6.30668L63.3403 6.31749L63.3294 6.33369L63.3185 6.3499L63.302 6.36071L63.2747 6.41474L63.2474 6.46876L63.231 6.47957C63.2237 6.49038 62.9923 6.7965 62.5366 7.39805C62.081 8.00316 61.835 8.30928 61.7986 8.31652C61.7621 8.32733 61.7111 8.38136 61.6455 8.47861C61.5835 8.57942 61.1972 8.98107 60.4864 9.68343C59.7757 10.3858 59.0796 11.0107 58.398 11.5582C57.7128 12.1093 57.3665 12.7864 57.3592 13.5897C57.3483 14.3893 57.3064 15.2934 57.2334 16.3019C57.1605 17.3104 57.0239 18.3999 56.8234 19.5706C56.6229 20.7412 56.3131 22.0649 55.8939 23.5416C55.4748 25.0184 54.9645 26.4591 54.3631 27.8639C53.7617 29.2686 53.133 30.5292 52.4769 31.6458C51.8209 32.7624 51.2195 33.7079 50.6727 34.4823C50.126 35.2567 49.5702 35.9861 49.0052 36.6704C48.4403 37.3548 47.726 38.1256 46.8621 38.9828C45.9947 39.8365 45.5209 40.3047 45.4407 40.3876C45.3568 40.4668 44.9997 40.7622 44.369 41.2736C43.7422 41.7887 43.0678 42.3037 42.3462 42.8188C41.6281 43.3303 40.9684 43.7571 40.367 44.0993C39.7656 44.4414 39.0403 44.8322 38.1911 45.2717C37.3455 45.7147 36.4306 46.1253 35.4465 46.5035C34.4624 46.8817 33.4236 47.2329 32.3302 47.5571C31.2367 47.8812 30.1798 48.1334 29.1592 48.3135C28.1387 48.4935 26.9814 48.6467 25.6875 48.7727L23.7466 48.9618V48.9888H20.1929V48.9618L19.7282 48.9348C19.4184 48.9168 19.1633 48.8988 18.9628 48.8808C18.7624 48.8628 18.006 48.7637 16.6939 48.5836C15.3818 48.4035 14.3521 48.2234 13.6049 48.0433C12.8578 47.8633 11.7461 47.521 10.2699 47.0168C8.79376 46.5126 7.53083 46.0029 6.48112 45.4878C5.43508 44.9763 4.77901 44.6522 4.51292 44.5153C4.25049 44.382 3.95526 44.2164 3.62723 44.0182L3.13518 43.7211L3.1243 43.7049L3.10784 43.6941L3.09144 43.6833L3.08051 43.6671L3.02583 43.64L2.97116 43.613L2.96028 43.5968L2.94382 43.586L2.92742 43.5752L2.91649 43.559L2.90561 43.5428L2.88915 43.532H2.86182V43.4239L2.91649 43.4347L2.97116 43.4509L3.21719 43.478C3.3812 43.496 3.82771 43.523 4.55666 43.559C5.28566 43.595 6.06015 43.595 6.88023 43.559C7.70031 43.523 8.53866 43.4419 9.39516 43.3159C10.2517 43.1898 11.2631 42.9737 12.4295 42.6675C13.5958 42.3614 14.6674 41.9976 15.6443 41.5762C16.6174 41.1512 17.3099 40.8342 17.7218 40.6253C18.13 40.42 18.7533 40.0382 19.5915 39.4799L20.849 38.6425L20.8599 38.6262L20.8763 38.6154L20.8928 38.6046L20.9037 38.5884L20.9146 38.5722L20.931 38.5614L20.9475 38.5506L20.9583 38.5344L21.013 38.5182L21.0677 38.5074L21.0786 38.4534L21.095 38.3993L21.1115 38.3885L21.1224 38.3723L20.685 38.3453C20.3934 38.3273 20.1109 38.3093 19.8376 38.2913C19.5642 38.2733 19.136 38.1922 18.5528 38.0481C17.9696 37.9041 17.3409 37.6879 16.6666 37.3998C15.9923 37.1117 15.3362 36.7695 14.6984 36.3733C14.0606 35.9771 13.5995 35.6475 13.3152 35.3846C13.0345 35.1252 12.67 34.7578 12.2217 34.2824C11.7771 33.8034 11.3907 33.3117 11.0627 32.8074C10.7346 32.3032 10.4212 31.7214 10.1224 31.0623L9.66852 30.079L9.64118 29.998L9.61385 29.9169L9.59744 29.8629L9.58651 29.8089L9.66852 29.8197L9.75053 29.8359L10.3519 29.9169C10.7529 29.971 11.3816 29.9889 12.2381 29.971C13.0947 29.953 13.6869 29.9169 14.015 29.8629C14.343 29.8089 14.5435 29.7728 14.6164 29.7548L14.7257 29.7278L14.8624 29.7008L14.9991 29.6738L15.01 29.6576L15.0264 29.6468L15.0429 29.636L15.0537 29.6198L14.9444 29.5928L14.8351 29.5657L14.7257 29.5387L14.6164 29.5117L14.507 29.4847C14.4341 29.4667 14.3066 29.4307 14.1243 29.3766C13.9421 29.3226 13.45 29.1245 12.6482 28.7823C11.8463 28.4402 11.2085 28.107 10.7346 27.7828C10.2596 27.4577 9.80668 27.1022 9.37875 26.7185C8.95231 26.3295 8.48399 25.8288 7.97368 25.2165C7.46342 24.6042 7.00784 23.8928 6.60687 23.0824C6.20596 22.272 5.90526 21.4976 5.70478 20.7592C5.5051 20.0251 5.37336 19.2746 5.31119 18.517L5.21273 17.3824L5.2674 17.3932L5.32207 17.4094L5.37674 17.4365L5.43141 17.4635L5.48609 17.4905L5.54076 17.5175L6.38818 17.8957C6.95316 18.1478 7.65477 18.364 8.49306 18.544C9.33141 18.7241 9.83253 18.8232 9.99655 18.8412L10.2426 18.8682H10.7346L10.7237 18.852L10.7073 18.8412L10.6909 18.8304L10.68 18.8142L10.6691 18.798L10.6526 18.7872L10.6362 18.7763L10.6253 18.7601L10.5706 18.7331L10.5159 18.7061L10.5051 18.6899L10.4886 18.6791L10.4722 18.6683L10.4613 18.6521L10.4066 18.6251L10.3519 18.5981L10.341 18.5818C10.3301 18.5746 10.1734 18.4594 9.87081 18.2361C9.57191 18.0091 9.25848 17.7156 8.93044 17.3554C8.60241 16.9952 8.27437 16.617 7.94634 16.2208C7.6177 15.8237 7.32499 15.3989 7.07158 14.9512C6.81648 14.5009 6.54673 13.9282 6.26243 13.2331C5.9818 12.5415 5.76858 11.8446 5.62277 11.1422C5.47701 10.4398 5.395 9.74648 5.37674 9.06211C5.35854 8.37774 5.37674 7.79245 5.43141 7.3062C5.48609 6.81995 5.59543 6.27064 5.75945 5.65834C5.92347 5.04604 6.16041 4.39771 6.47019 3.71334L6.9349 2.6868L6.96224 2.60576L6.98957 2.52472L7.00603 2.51391L7.01691 2.49771L7.02785 2.4815L7.04425 2.47069L7.0607 2.4815L7.07158 2.49771L7.08252 2.51391L7.09892 2.52472L7.11538 2.53552L7.12626 2.55173L7.13719 2.56794L7.15359 2.57875L7.18093 2.63278L7.20826 2.6868L7.22472 2.69761L7.2356 2.71382L7.97368 3.52424C8.46573 4.06452 9.04892 4.66785 9.72319 5.33418C10.3975 6.0005 10.7711 6.34628 10.844 6.37151C10.9169 6.40031 11.008 6.48314 11.1173 6.62004C11.2267 6.75333 11.5912 7.0721 12.2108 7.57634C12.8304 8.08058 13.6414 8.66592 14.6437 9.33225C15.6461 9.99858 16.7577 10.6559 17.9787 11.3043C19.1998 11.9526 20.5119 12.5379 21.9151 13.0602C23.3184 13.5825 24.3025 13.9246 24.8674 14.0867C25.4324 14.2488 26.3982 14.4559 27.765 14.708C29.1319 14.9602 30.1616 15.1223 30.854 15.1943C31.5466 15.2663 32.0204 15.3077 32.2755 15.3186L32.6582 15.3294L32.6473 15.2483L32.6309 15.1673L32.5215 14.4919C32.4487 14.0417 32.4122 13.4114 32.4122 12.6009C32.4122 11.7905 32.476 11.0432 32.6035 10.3588C32.7312 9.67441 32.9225 8.98107 33.1776 8.2787C33.4328 7.57634 33.6825 7.01261 33.9266 6.58763C34.1745 6.16621 34.4989 5.68536 34.8998 5.14508C35.3008 4.6048 35.8201 4.04653 36.4579 3.47021C37.0958 2.89389 37.8248 2.38063 38.6448 1.93041C39.4649 1.4802 40.2213 1.13798 40.9137 0.903879C41.6063 0.669775 42.1895 0.51666 42.6632 0.44464C43.1371 0.372621 43.374 0.331182 43.374 0.320376Z" fill="#10781A"/>
</svg>
